<svg viewBox="0 0 800 1180" xmlns="http://www.w3.org/2000/svg" role="img" aria-label="Mappa del Sentiero degli Dei">
  <rect width="800" height="1180" fill="#0f1f28"/>
  <g stroke="#1c3744" stroke-width="1" opacity="0.4">
    <path d="M0,300 H800 M0,600 H800 M0,900 H800"/>
    <path d="M270,0 V1180 M540,0 V1180"/>
  </g>
  <!-- the sea, lower-right -->
  <path d="M380,1180 C 480,980 560,940 800,900 L800,1180 Z" fill="#13343f" opacity="0.7"/>
  <g stroke="#23505e" stroke-width="2" opacity="0.4" fill="none">
    <path d="M420,1090 q40,-18 80,0 M520,1050 q40,-18 80,0 M620,1010 q40,-18 80,0"/>
  </g>
  <!-- cliff terraces, upper-left -->
  <g stroke="#16303b" stroke-width="2" opacity="0.6" fill="none">
    <path d="M80,240 H360 M120,300 H400 M90,360 H340 M140,420 H420"/>
  </g>
  <!-- THE ROUTE: only functional element; id MUST match map.pathId -->
  <path id="dei-route"
        d="M150,180 C 250,260 230,420 330,500 C 430,580 380,760 500,840 C 600,910 590,1040 660,1090"
        fill="none" stroke="#3a5765" stroke-width="3" stroke-linecap="round" stroke-dasharray="2 10"/>
</svg>
